<mxfile host="app.diagrams.net" modified="2021-01-30T09:14:34.177Z" agent="5.0 (X11)" etag="9xhLbqed1uDF7oGQW5w4" version="14.2.7" type="github">
  <diagram id="y9PfuHGtkb0Xi2rJtWgL" name="Page-1">
    <mxGraphModel dx="1350" dy="804" grid="1" gridSize="10" guides="1" tooltips="1" connect="1" arrows="1" fold="1" page="1" pageScale="1" pageWidth="827" pageHeight="1169" background="#DAD2D8" math="0" shadow="0">
      <root>
        <mxCell id="0" />
        <mxCell id="1" parent="0" />
        <mxCell id="mpRg7uGL-hKuVafOZky2-2" value="&lt;div align=&quot;left&quot;&gt;&amp;nbsp;&amp;nbsp;&amp;nbsp;&amp;nbsp;&amp;nbsp;&amp;nbsp;&amp;nbsp; 在 Flash 芯片写入扇区擦出指令之前,需要先写入写使能(WREN)指令,&lt;/div&gt;&lt;div align=&quot;left&quot;&gt;将芯片设置为写使能锁存(WEL)状态;随后要拉低片选信号,写入扇区擦&lt;/div&gt;&lt;div align=&quot;left&quot;&gt;除指令、扇区地址、页地址和字节地址,在指令、地址写入过程中,片选&lt;/div&gt;&lt;div align=&quot;left&quot;&gt;信号始终保持低电平,待指令、地址被芯片锁存后,将片选信号拉高;扇区&lt;/div&gt;&lt;div align=&quot;left&quot;&gt;擦除指令、地址被锁存并执行后,需要等待一个完整的扇区擦除周期(t SE )&lt;/div&gt;" style="text;html=1;align=center;verticalAlign=middle;resizable=0;points=[];autosize=1;fontColor=#143642;" parent="1" vertex="1">
          <mxGeometry x="20" y="10" width="410" height="80" as="geometry" />
        </mxCell>
        <mxCell id="mpRg7uGL-hKuVafOZky2-6" style="edgeStyle=orthogonalEdgeStyle;curved=0;rounded=1;sketch=0;orthogonalLoop=1;jettySize=auto;html=1;entryX=0.5;entryY=0;entryDx=0;entryDy=0;strokeColor=#A8201A;fillColor=#FAE5C7;fontColor=#143642;labelBackgroundColor=#DAD2D8;" parent="1" source="mpRg7uGL-hKuVafOZky2-3" target="mpRg7uGL-hKuVafOZky2-4" edge="1">
          <mxGeometry relative="1" as="geometry" />
        </mxCell>
        <mxCell id="mpRg7uGL-hKuVafOZky2-21" style="edgeStyle=orthogonalEdgeStyle;curved=0;rounded=1;sketch=0;orthogonalLoop=1;jettySize=auto;html=1;entryX=0.5;entryY=0;entryDx=0;entryDy=0;strokeColor=#A8201A;fillColor=#FAE5C7;fontColor=#143642;exitX=1;exitY=0.75;exitDx=0;exitDy=0;labelBackgroundColor=#DAD2D8;" parent="1" source="mpRg7uGL-hKuVafOZky2-3" target="mpRg7uGL-hKuVafOZky2-19" edge="1">
          <mxGeometry relative="1" as="geometry" />
        </mxCell>
        <mxCell id="4_lUSXkcKFkcI5uqRMfD-3" style="edgeStyle=orthogonalEdgeStyle;curved=0;rounded=1;sketch=0;orthogonalLoop=1;jettySize=auto;html=1;exitX=1;exitY=0.25;exitDx=0;exitDy=0;strokeColor=#A8201A;fillColor=#FAE5C7;fontColor=#143642;labelBackgroundColor=#DAD2D8;" parent="1" source="mpRg7uGL-hKuVafOZky2-3" target="4_lUSXkcKFkcI5uqRMfD-1" edge="1">
          <mxGeometry relative="1" as="geometry" />
        </mxCell>
        <mxCell id="mpRg7uGL-hKuVafOZky2-3" value="&lt;div&gt;S2_IDLE&lt;/div&gt;" style="whiteSpace=wrap;html=1;rounded=0;sketch=0;strokeColor=#0F8B8D;fillColor=#FAE5C7;fontColor=#143642;" parent="1" vertex="1">
          <mxGeometry x="178" y="120" width="120" height="60" as="geometry" />
        </mxCell>
        <mxCell id="mpRg7uGL-hKuVafOZky2-7" style="edgeStyle=orthogonalEdgeStyle;curved=0;rounded=1;sketch=0;orthogonalLoop=1;jettySize=auto;html=1;entryX=0.5;entryY=0;entryDx=0;entryDy=0;strokeColor=#A8201A;fillColor=#FAE5C7;fontColor=#143642;labelBackgroundColor=#DAD2D8;" parent="1" source="mpRg7uGL-hKuVafOZky2-4" target="mpRg7uGL-hKuVafOZky2-5" edge="1">
          <mxGeometry relative="1" as="geometry" />
        </mxCell>
        <mxCell id="mpRg7uGL-hKuVafOZky2-4" value="C_SE" style="whiteSpace=wrap;html=1;rounded=0;sketch=0;strokeColor=#0F8B8D;fillColor=#FAE5C7;fontColor=#143642;" parent="1" vertex="1">
          <mxGeometry x="38" y="220" width="120" height="60" as="geometry" />
        </mxCell>
        <mxCell id="mpRg7uGL-hKuVafOZky2-9" style="edgeStyle=orthogonalEdgeStyle;curved=0;rounded=1;sketch=0;orthogonalLoop=1;jettySize=auto;html=1;entryX=0.5;entryY=0;entryDx=0;entryDy=0;strokeColor=#A8201A;fillColor=#FAE5C7;fontColor=#143642;labelBackgroundColor=#DAD2D8;" parent="1" source="mpRg7uGL-hKuVafOZky2-5" target="mpRg7uGL-hKuVafOZky2-8" edge="1">
          <mxGeometry relative="1" as="geometry" />
        </mxCell>
        <mxCell id="mpRg7uGL-hKuVafOZky2-5" value="SR_ADDR" style="whiteSpace=wrap;html=1;rounded=0;sketch=0;strokeColor=#0F8B8D;fillColor=#FAE5C7;fontColor=#143642;" parent="1" vertex="1">
          <mxGeometry x="38" y="310" width="120" height="60" as="geometry" />
        </mxCell>
        <mxCell id="mpRg7uGL-hKuVafOZky2-11" style="edgeStyle=orthogonalEdgeStyle;curved=0;rounded=1;sketch=0;orthogonalLoop=1;jettySize=auto;html=1;strokeColor=#A8201A;fillColor=#FAE5C7;fontColor=#143642;labelBackgroundColor=#DAD2D8;" parent="1" source="mpRg7uGL-hKuVafOZky2-8" target="mpRg7uGL-hKuVafOZky2-10" edge="1">
          <mxGeometry relative="1" as="geometry" />
        </mxCell>
        <mxCell id="mpRg7uGL-hKuVafOZky2-8" value="PE_ADDR" style="whiteSpace=wrap;html=1;rounded=0;sketch=0;strokeColor=#0F8B8D;fillColor=#FAE5C7;fontColor=#143642;" parent="1" vertex="1">
          <mxGeometry x="38" y="400" width="120" height="60" as="geometry" />
        </mxCell>
        <mxCell id="mpRg7uGL-hKuVafOZky2-26" style="edgeStyle=orthogonalEdgeStyle;curved=0;rounded=1;sketch=0;orthogonalLoop=1;jettySize=auto;html=1;entryX=0;entryY=0.5;entryDx=0;entryDy=0;strokeColor=#A8201A;fillColor=#FAE5C7;fontColor=#143642;labelBackgroundColor=#DAD2D8;" parent="1" source="mpRg7uGL-hKuVafOZky2-10" target="mpRg7uGL-hKuVafOZky2-25" edge="1">
          <mxGeometry relative="1" as="geometry" />
        </mxCell>
        <mxCell id="4_lUSXkcKFkcI5uqRMfD-8" style="edgeStyle=orthogonalEdgeStyle;curved=0;rounded=1;sketch=0;orthogonalLoop=1;jettySize=auto;html=1;exitX=1;exitY=0.25;exitDx=0;exitDy=0;entryX=0.5;entryY=0;entryDx=0;entryDy=0;strokeColor=#A8201A;fillColor=#FAE5C7;fontColor=#143642;labelBackgroundColor=#DAD2D8;" parent="1" source="mpRg7uGL-hKuVafOZky2-10" target="4_lUSXkcKFkcI5uqRMfD-7" edge="1">
          <mxGeometry relative="1" as="geometry">
            <Array as="points">
              <mxPoint x="180" y="505" />
              <mxPoint x="180" y="460" />
              <mxPoint x="540" y="460" />
            </Array>
          </mxGeometry>
        </mxCell>
        <mxCell id="QHvNHM5LutkKZke6r-BI-2" style="edgeStyle=orthogonalEdgeStyle;curved=0;rounded=1;sketch=0;orthogonalLoop=1;jettySize=auto;html=1;entryX=0;entryY=0.5;entryDx=0;entryDy=0;strokeColor=#A8201A;fillColor=#FAE5C7;fontColor=#143642;" edge="1" parent="1" source="mpRg7uGL-hKuVafOZky2-10" target="mpRg7uGL-hKuVafOZky2-16">
          <mxGeometry relative="1" as="geometry">
            <Array as="points">
              <mxPoint x="98" y="700" />
            </Array>
          </mxGeometry>
        </mxCell>
        <mxCell id="mpRg7uGL-hKuVafOZky2-10" value="BE_ADDR" style="whiteSpace=wrap;html=1;rounded=0;sketch=0;strokeColor=#0F8B8D;fillColor=#FAE5C7;fontColor=#143642;" parent="1" vertex="1">
          <mxGeometry x="38" y="490" width="120" height="60" as="geometry" />
        </mxCell>
        <mxCell id="mpRg7uGL-hKuVafOZky2-15" value="&lt;div align=&quot;left&quot;&gt;&amp;nbsp;&amp;nbsp;&amp;nbsp;&amp;nbsp;&amp;nbsp;&amp;nbsp; 在写入页写指令之前,需要先写入写使能(WREN)指令,将芯片设置为写使能锁存(WEL)&lt;/div&gt;&lt;div align=&quot;left&quot;&gt;状态;随后要拉低片选信号,写入页写指令、扇区地址、页地址、字节地址,紧跟地址写入要&lt;/div&gt;&lt;div align=&quot;left&quot;&gt;存储在 Flash 的字节数据,在指令、地址以及数据写入过程中,片选信号始终保持低电平,待&lt;/div&gt;&lt;div align=&quot;left&quot;&gt;指令、地址、数据被芯片锁存后,将片选信号拉高;片选信号拉高后,等待一个完整的页写周&lt;/div&gt;&lt;div align=&quot;left&quot;&gt;期(t PP ),才能完成 Flash 芯片的页写操作。&lt;/div&gt;" style="text;html=1;align=left;verticalAlign=middle;resizable=0;points=[];autosize=1;fontColor=#143642;" parent="1" vertex="1">
          <mxGeometry x="63" y="820" width="480" height="80" as="geometry" />
        </mxCell>
        <mxCell id="4_lUSXkcKFkcI5uqRMfD-11" style="edgeStyle=orthogonalEdgeStyle;curved=0;rounded=1;sketch=0;orthogonalLoop=1;jettySize=auto;html=1;entryX=0.5;entryY=0;entryDx=0;entryDy=0;strokeColor=#A8201A;fillColor=#FAE5C7;fontColor=#143642;labelBackgroundColor=#DAD2D8;" parent="1" source="mpRg7uGL-hKuVafOZky2-16" target="mpRg7uGL-hKuVafOZky2-3" edge="1">
          <mxGeometry relative="1" as="geometry">
            <Array as="points">
              <mxPoint x="242" y="780" />
              <mxPoint x="790" y="780" />
              <mxPoint x="790" y="100" />
              <mxPoint x="238" y="100" />
            </Array>
          </mxGeometry>
        </mxCell>
        <mxCell id="mpRg7uGL-hKuVafOZky2-16" value="END" style="whiteSpace=wrap;html=1;rounded=0;sketch=0;strokeColor=#0F8B8D;fillColor=#FAE5C7;fontColor=#143642;" parent="1" vertex="1">
          <mxGeometry x="182" y="670" width="120" height="60" as="geometry" />
        </mxCell>
        <mxCell id="mpRg7uGL-hKuVafOZky2-17" value="state==SE" style="text;html=1;align=center;verticalAlign=middle;resizable=0;points=[];autosize=1;fontColor=#143642;" parent="1" vertex="1">
          <mxGeometry x="63" y="170" width="70" height="20" as="geometry" />
        </mxCell>
        <mxCell id="4_lUSXkcKFkcI5uqRMfD-5" style="edgeStyle=orthogonalEdgeStyle;curved=0;rounded=1;sketch=0;orthogonalLoop=1;jettySize=auto;html=1;entryX=1;entryY=0.25;entryDx=0;entryDy=0;strokeColor=#A8201A;fillColor=#FAE5C7;fontColor=#143642;labelBackgroundColor=#DAD2D8;" parent="1" source="mpRg7uGL-hKuVafOZky2-19" target="mpRg7uGL-hKuVafOZky2-5" edge="1">
          <mxGeometry relative="1" as="geometry">
            <Array as="points">
              <mxPoint x="362" y="325" />
            </Array>
          </mxGeometry>
        </mxCell>
        <mxCell id="mpRg7uGL-hKuVafOZky2-19" value="C_PP" style="whiteSpace=wrap;html=1;rounded=0;sketch=0;strokeColor=#0F8B8D;fillColor=#FAE5C7;fontColor=#143642;" parent="1" vertex="1">
          <mxGeometry x="302" y="220" width="120" height="60" as="geometry" />
        </mxCell>
        <mxCell id="mpRg7uGL-hKuVafOZky2-22" value="state==PP" style="text;html=1;align=center;verticalAlign=middle;resizable=0;points=[];autosize=1;fontColor=#143642;" parent="1" vertex="1">
          <mxGeometry x="327" y="180" width="70" height="20" as="geometry" />
        </mxCell>
        <mxCell id="QHvNHM5LutkKZke6r-BI-3" style="edgeStyle=orthogonalEdgeStyle;curved=0;rounded=1;sketch=0;orthogonalLoop=1;jettySize=auto;html=1;entryX=0.5;entryY=0;entryDx=0;entryDy=0;strokeColor=#A8201A;fillColor=#FAE5C7;fontColor=#143642;" edge="1" parent="1" source="mpRg7uGL-hKuVafOZky2-25" target="mpRg7uGL-hKuVafOZky2-16">
          <mxGeometry relative="1" as="geometry" />
        </mxCell>
        <mxCell id="mpRg7uGL-hKuVafOZky2-25" value="SD_DATA" style="whiteSpace=wrap;html=1;rounded=0;sketch=0;strokeColor=#0F8B8D;fillColor=#FAE5C7;fontColor=#143642;" parent="1" vertex="1">
          <mxGeometry x="258" y="490" width="120" height="60" as="geometry" />
        </mxCell>
        <mxCell id="mpRg7uGL-hKuVafOZky2-27" value="state==PP" style="text;html=1;align=center;verticalAlign=middle;resizable=0;points=[];autosize=1;fontColor=#143642;" parent="1" vertex="1">
          <mxGeometry x="178" y="490" width="70" height="20" as="geometry" />
        </mxCell>
        <mxCell id="4_lUSXkcKFkcI5uqRMfD-6" style="edgeStyle=orthogonalEdgeStyle;curved=0;rounded=1;sketch=0;orthogonalLoop=1;jettySize=auto;html=1;entryX=1;entryY=0.75;entryDx=0;entryDy=0;strokeColor=#A8201A;fillColor=#FAE5C7;fontColor=#143642;labelBackgroundColor=#DAD2D8;" parent="1" source="4_lUSXkcKFkcI5uqRMfD-1" target="mpRg7uGL-hKuVafOZky2-5" edge="1">
          <mxGeometry relative="1" as="geometry">
            <Array as="points">
              <mxPoint x="540" y="355" />
            </Array>
          </mxGeometry>
        </mxCell>
        <mxCell id="4_lUSXkcKFkcI5uqRMfD-1" value="C_READ" style="whiteSpace=wrap;html=1;rounded=0;sketch=0;strokeColor=#0F8B8D;fillColor=#FAE5C7;fontColor=#143642;" parent="1" vertex="1">
          <mxGeometry x="480" y="220" width="120" height="60" as="geometry" />
        </mxCell>
        <mxCell id="4_lUSXkcKFkcI5uqRMfD-2" value="&lt;div align=&quot;left&quot;&gt;&amp;nbsp;&amp;nbsp;&amp;nbsp;&amp;nbsp;&amp;nbsp;&amp;nbsp;&amp;nbsp; 要执行数据读指令,首先拉低片选信号选中 Flash 芯片,随后写入数据读(READ)指令,&lt;/div&gt;&lt;div align=&quot;left&quot;&gt;紧跟指令写入 3 字节的数据读取首地址,指令和地址会在串行时钟上升沿被芯片锁存。随&lt;/div&gt;&lt;div align=&quot;left&quot;&gt;后存储地址对应存储单元中的数据在串行时钟下降沿通过串行数据总线输出。数据读取&lt;/div&gt;&lt;div align=&quot;left&quot;&gt;首地址可以为芯片中的任何一个有效地址,使用数据读(READ)指令可以对芯片内数据连续&lt;/div&gt;&lt;div align=&quot;left&quot;&gt;读取,当首地址数据读取完成,会自动对首地址的下一个地址进行数据读取。若最高位地址&lt;/div&gt;&lt;div align=&quot;left&quot;&gt;内数据读取完成,会自动跳转到芯片首地址继续进行数据读取,只有再次拉高片选信号,才能&lt;/div&gt;&lt;div align=&quot;left&quot;&gt;停止数据读操作,否者会对芯片执行无线循环读操作。&lt;/div&gt;" style="text;html=1;align=center;verticalAlign=middle;resizable=0;points=[];autosize=1;fontColor=#143642;" parent="1" vertex="1">
          <mxGeometry x="60" y="910" width="480" height="100" as="geometry" />
        </mxCell>
        <mxCell id="4_lUSXkcKFkcI5uqRMfD-4" value="state==RA_DATA" style="text;html=1;align=center;verticalAlign=middle;resizable=0;points=[];autosize=1;fontColor=#143642;" parent="1" vertex="1">
          <mxGeometry x="378" y="110" width="110" height="20" as="geometry" />
        </mxCell>
        <mxCell id="4_lUSXkcKFkcI5uqRMfD-10" style="edgeStyle=orthogonalEdgeStyle;curved=0;rounded=1;sketch=0;orthogonalLoop=1;jettySize=auto;html=1;entryX=1;entryY=0.5;entryDx=0;entryDy=0;strokeColor=#A8201A;fillColor=#FAE5C7;fontColor=#143642;labelBackgroundColor=#DAD2D8;" parent="1" source="4_lUSXkcKFkcI5uqRMfD-7" target="mpRg7uGL-hKuVafOZky2-16" edge="1">
          <mxGeometry relative="1" as="geometry">
            <Array as="points">
              <mxPoint x="540" y="700" />
            </Array>
          </mxGeometry>
        </mxCell>
        <mxCell id="4_lUSXkcKFkcI5uqRMfD-7" value="RD_DATA" style="whiteSpace=wrap;html=1;rounded=0;sketch=0;strokeColor=#0F8B8D;fillColor=#FAE5C7;fontColor=#143642;" parent="1" vertex="1">
          <mxGeometry x="480" y="490" width="120" height="60" as="geometry" />
        </mxCell>
        <mxCell id="4_lUSXkcKFkcI5uqRMfD-9" value="state==RA_DATA" style="text;html=1;align=center;verticalAlign=middle;resizable=0;points=[];autosize=1;fontColor=#143642;" parent="1" vertex="1">
          <mxGeometry x="320" y="430" width="110" height="20" as="geometry" />
        </mxCell>
        <mxCell id="QHvNHM5LutkKZke6r-BI-5" value="state==SE" style="text;html=1;align=center;verticalAlign=middle;resizable=0;points=[];autosize=1;fontColor=#143642;" vertex="1" parent="1">
          <mxGeometry x="60" y="610" width="70" height="20" as="geometry" />
        </mxCell>
      </root>
    </mxGraphModel>
  </diagram>
</mxfile>
